<svg width="80" height="80" viewBox="0 0 80 80" fill="none" xmlns="http://www.w3.org/2000/svg">
<g clip-path="url(#clip0_2858_88)">
<circle cx="40" cy="40" r="40" fill="#2ECF56"/>
<path d="M56.5215 50.6746V50.6669C56.5215 50.6669 49.8172 43.9703 49.813 43.967C49.2815 43.4352 48.4314 43.4467 47.9085 43.9706L44.8225 47.0692C43.6228 48.2692 42.0758 47.2044 39.1064 44.7831C37.1418 43.1811 34.8814 41.0269 32.9215 38.5982C31.5461 36.8942 30.3298 35.1046 31.5863 33.8484C31.5896 33.8452 34.685 30.7578 34.6844 30.7545L34.6868 30.748C35.2423 30.1925 35.1884 29.3415 34.6812 28.8337V28.826C34.6812 28.826 27.7831 21.9365 27.7793 21.9324C27.2477 21.4008 26.3979 21.4127 25.8747 21.9359L22.766 25.0446C21.4852 26.6475 18.6389 34.2868 30.8416 46.795C43.6965 59.9726 51.9915 57.1538 53.4196 55.6669C53.4196 55.6669 56.525 52.5981 56.525 52.5951L56.5277 52.5889C57.0832 52.0331 57.0285 51.1827 56.5215 50.6746Z" fill="white"/>
</g>
<defs>
<clipPath id="clip0_2858_88">
<rect width="80" height="80" fill="white"/>
</clipPath>
</defs>
</svg>
