<svg width="24" height="24" viewBox="0 0 24 24" fill="none" xmlns="http://www.w3.org/2000/svg">
<path d="M5.12061 6.46973C4.91309 6.46973 4.73877 6.34521 4.64746 6.1377C4.55615 5.94678 4.50635 5.63965 4.50635 5.33252C4.50635 4.0376 5.54395 3 6.83887 3C7.33691 3 7.90137 3.15771 8.2168 3.43994C8.35791 3.57275 8.44092 3.71387 8.44092 3.88818C8.44092 4.0293 8.36621 4.16211 8.2334 4.26172L5.45264 6.36182C5.33643 6.45312 5.24512 6.46973 5.12061 6.46973ZM18.7505 6.46973C18.626 6.46973 18.543 6.45312 18.4185 6.36182L15.646 4.26172C15.5049 4.16211 15.4302 4.0293 15.4302 3.88818C15.4302 3.71387 15.5132 3.57275 15.6543 3.43994C15.9697 3.15771 16.5342 3 17.0322 3C18.3354 3 19.3647 4.0376 19.3647 5.33252C19.3647 5.63965 19.3149 5.95508 19.2319 6.1377C19.1323 6.33691 18.958 6.46973 18.7505 6.46973ZM4.99609 19.9751C4.75537 19.7344 4.74707 19.3276 5.00439 19.0786L6.26611 17.8252C4.86328 16.3975 4 14.4385 4 12.2803C4 7.89746 7.55273 4.33643 11.9355 4.33643C16.3184 4.33643 19.8711 7.89746 19.8711 12.2803C19.8711 14.4385 19.0078 16.3975 17.605 17.8252L18.8667 19.0786C19.124 19.3276 19.124 19.7344 18.875 19.9751C18.626 20.2324 18.2192 20.2324 17.9619 19.9668L16.6504 18.6636C15.3306 19.6348 13.7036 20.2158 11.9355 20.2158C10.1675 20.2158 8.54053 19.6348 7.2207 18.6636L5.90918 19.9668C5.65186 20.2324 5.24512 20.2324 4.99609 19.9751ZM8.15869 13.1934H11.9272C12.251 13.1934 12.5083 12.9443 12.5083 12.6206V7.59033C12.5083 7.2666 12.251 7.00928 11.9272 7.00928C11.6035 7.00928 11.3545 7.2666 11.3545 7.59033V12.0396H8.15869C7.83496 12.0396 7.58594 12.2969 7.58594 12.6206C7.58594 12.9443 7.83496 13.1934 8.15869 13.1934Z" fill="white"/>
</svg>
