<svg width="80" height="80" viewBox="0 0 80 80" fill="none" xmlns="http://www.w3.org/2000/svg">
<g clip-path="url(#clip0_2858_86)">
<circle cx="40" cy="40" r="40" fill="#FE473D"/>
<path d="M20.1331 44.5851L20.1386 44.5905C20.1386 44.5905 29.6144 44.5851 29.6197 44.5845C30.3716 44.5847 30.9645 43.9754 30.9639 43.2352L30.9549 38.8621C30.9547 37.1652 32.8015 36.8243 36.6133 36.4367C39.1353 36.1803 42.2569 36.1052 45.3601 36.4367C47.5376 36.6691 49.663 37.0744 49.6628 38.8512C49.6628 38.8558 49.6572 43.2277 49.6599 43.2296L49.6628 43.2359C49.6628 44.0214 50.3026 44.5851 51.0204 44.5855L51.0259 44.591C51.0259 44.591 60.7751 44.5849 60.7807 44.5851C61.5324 44.5851 62.125 43.9758 62.125 43.2359V38.8395C61.8972 36.8004 58.5081 29.386 41.0348 29.1699C22.6271 28.9417 18.7548 36.8004 18.7964 38.8616C18.7964 38.8616 18.7705 43.2275 18.7726 43.2296L18.7751 43.2359C18.7753 44.0217 19.4153 44.5843 20.1331 44.5851Z" fill="white"/>
</g>
<defs>
<clipPath id="clip0_2858_86">
<rect width="80" height="80" fill="white"/>
</clipPath>
</defs>
</svg>
